# xmcd
#
# Track frame offsets:
#	150
#	17567
#	31257
#	53390
#	72226
#	85000
#	98144
#	114950
#	124336
#	141404
#	159724
#	172584
#	188144
#	204580
#	224437
#	235734
#	254063
#
# Disc length: 3521 seconds
#
# Revision: 1
# Processed by: cddbd v1.5.2PL0 Copyright (c) Steve Scherf et al.
# Submitted via: audiograbber 1.83.01
#
DISCID=e40dbf11
DTITLE=Lovett Sisters - Wheels Of Time Lovett Sisters CD 1
DYEAR=1900
DGENRE=
TTITLE0=Your Cheating Heart
TTITLE1=Hello Darling
TTITLE2=Wheels Of Time
TTITLE3=I Forgot More Than You´ll Ever Know About Her
TTITLE4=Help Me Make It Through The Night
TTITLE5=Just A Little Lovin´
TTITLE6=When Are You Coming Home
TTITLE7=Hey Good Looking
TTITLE8=I´m So Lonesome I Could Cry
TTITLE9=For The Good Times
TTITLE10=It Wasen´t God Who Made Honky Tonk Angels
TTITLE11=She´ll Have To Go
TTITLE12=Faded Love 
TTITLE13=Have I Told You Lately That I Love You
TTITLE14=Why Don´t You Love Me
TTITLE15=Always On My Mind
TTITLE16=Come Home To Me
EXTD=
EXTT0=
EXTT1=
EXTT2=
EXTT3=
EXTT4=
EXTT5=
EXTT6=
EXTT7=
EXTT8=
EXTT9=
EXTT10=
EXTT11=
EXTT12=
EXTT13=
EXTT14=
EXTT15=
EXTT16=
PLAYORDER=
